<svg xml:space="preserve" style="enable-background:new 0 0 429.1 422.7;" viewBox="0 0 429.1 422.7" y="0px" x="0px" xmlns:xlink="http://www.w3.org/1999/xlink" xmlns="http://www.w3.org/2000/svg" id="Layer_1" version="1.1">
<path d="M369.5,136.4c9.8,6,21.6,5.1,30.3-2.2c4.8-4,7-9.5,8.9-15.2v-8.3c-1.8-5.3-3.8-10.5-8.1-14.4c-9-8.1-21.4-9.3-31.7-2.5
	c-1.9,1.2-3.2,1.3-5.1,0.3c-14.3-7-28.7-13.9-43-20.9c-1.2-0.6-2.6-2.1-2.8-3.4c-5.9-30-30.2-52.3-58.6-56.4
	c-9.1,0.6-9.8,12.1,1,13.1c19.5,4,35.9,18,42.8,37.8c7.8,22.3,0.2,47.1-14.8,59.9c-3.8,4.9-9.2,8.7-15.2,10.4
	c-0.9,0.9-2.6,1.5-5.6,2.5c-14,4.7-27.8,4.2-41.5-1.4c-0.3-0.1-0.6-0.3-0.9-0.4c-6.3-1.9-15.1-10.8-15.1-10.5
	c-12.8-9.3-22.6-32.2-17.7-53.7c5-22.2,24.9-41.5,42.5-44c9.9-1.4,8.3-14-4-12.1c-29.1,7.7-49.9,32.6-52.4,62.7
	c-0.1,1.2-0.7,2.7-1.6,3.5c-12,10.4-24.1,20.7-36,30.9c-5-3-9.6-6.6-14.8-8.8c-6.9-2.8-14.1-4.7-21.3-6.6c-2.3-0.6-3.4-1.2-3.3-3.8
	c0.2-9,0.1-18,0-27c0-1.7,0.1-2.9,2.1-3.7c11.2-4.4,17.7-14.2,17.1-25.1c-0.7-11.6-8.1-20.5-20-23.8c-0.6-0.2-1.1-0.4-1.7-0.7h-7.5
	c-0.3,0.2-0.6,0.4-1,0.5c-12.2,2.3-19.8,12.7-20.8,22.7c-1.1,11.8,6.3,23.2,17.1,26.6c0.8,0.3,1.8,1.5,1.8,2.3
	c0.1,10.4,0.1,20.7,0.1,31.4c-19.2,2.2-35.1,10.4-47.4,25C29,135.6,23.4,152.8,25.1,172c1.5,16.7,8.8,31.8,19.8,43.2c0,0,0,0,0,0
	c0,0,1.5,1.1,1.6,1.1c10.1,3.2,12.3-7.2,6.2-11.7l0,0c-10.8-10.9-18.7-31.7-13.4-52.3c6.4-24.8,27.9-42.6,52.8-43.7
	c25.9-1.2,48.9,14.2,57.5,38.9c7.9,22.4,0.3,47.2-15.8,60.9c0-0.4-1.8,1.5-2.8,2.6c-2.7,3-13,8-16.1,9.1
	c-12.2,4.2-24.4,4.5-36.4,0.9c-8.5-3.1-14,6.4-6.7,11.7c4.3,1.5,8.9,2.6,13.5,3.3c16,2.1,31.1-0.6,45-8.9
	c18.5-10.9,29.8-27.2,34.3-48.6c8.8,6.9,17.2,13.5,25.8,20c2.3,1.7,2.6,3.1,1.9,5.9c-2.6,9.6-0.1,18.2,7.1,25.1
	c6,5.8,14.7,8.2,22.8,6.4c11-2.5,17.8-9.6,19.7-20.5c1.9-10.4-1.8-19.1-10.4-25.2c-8.8-6.1-18.2-6.4-27.5-1.1
	c-2.2,1.3-3.6,1.2-5.5-0.4c-10.1-8-20.3-15.8-30.4-23.9c-1.4-1.1-2.3-3.1-2.8-4.9c-1.5-5.9-2-12.2-4.2-17.8c-2.8-7.2-7-14-10.8-21.4
	c9.2-7.9,19-16.2,29.1-24.8c10,47.2,61.8,73,106.4,47.1c9.4,12.6,18.9,25.2,28.5,38c-1.3,0.4-2.1,0.7-3,1
	c-16.4,5.3-29.5,15-38.8,29.6c-11.2,17.8-13.7,36.9-8.3,57.2c0.3,1.3,0.4,3.6-0.4,4.2c-7.9,6.2-16.1,12.2-24.3,18.3
	c-0.8-1.2-1.4-2.1-2-3.1c-19.6-31.5-62.8-42.1-94.6-23c-19.5,11.7-31.1,28.8-34.4,51.4c-0.3,2.3-1.2,3.1-3.6,3.1c-9-0.1-18-0.1-27,0
	c-2.2,0-3.2-0.6-4-2.8c-1.9-5.5-5.6-9.7-10.6-12.7c-13.2-7.8-29.1-3.1-36.1,10.5c-6.5,12.7-0.7,28.7,12.6,34.6
	c13.3,5.9,28.8-0.6,34.1-14.5c0.7-1.9,1.6-2.4,3.5-2.4c9.2,0.1,18.5,0.1,27.7,0c2.3,0,3,0.9,3.3,3c0.4,2.8,0.9,5.7,1.6,8.4
	c6.6,25.5,28.9,48.7,60.5,52.2c26.3,2.9,52.5-9.1,67.1-33.1c4-6.5,6.6-13.8,9.9-20.9c6.4,3.1,13.3,6.4,20.1,9.7
	c6.9,3.3,13.9,6.7,20.8,10c-0.4,1.5-0.7,2.6-0.9,3.6c-3.7,16.7,10.7,32.6,27.5,30.6c11-1.3,19.5-8.7,22.2-19.4
	c2.5-10-1.6-20.9-10.3-27c-8.4-5.9-19.9-5.9-28.9-0.1c-1.1,0.7-3.1,1-4.2,0.5c-14.5-6.8-28.8-13.7-43.2-20.8c-1-0.5-1.9-2.1-2.1-3.3
	c-0.6-4.3,0.1-9.1-1.6-12.9c-3.8-8.8,0.6-12.9,7.2-17.1c5.6-3.5,10.8-7.9,16.2-12c0.6,0.9,1,1.4,1.3,1.9
	c14.3,23.6,42.8,37.9,72.5,32.6c38.6-6.8,65.1-46.3,56.1-84.3c-7.8-33.1-35-54.8-69.3-55.4c-1.4,0-3.3-1-4.2-2.2
	c-10-13.1-19.9-26.3-29.8-39.5c-0.5-0.7-0.9-1.4-1.3-2.1c15.5-16.8,18.2-22.4,23.1-48.3c13.3,6.4,26.5,12.8,39.7,19.2
	c-0.2,1-0.4,1.7-0.6,2.5C355.7,119.3,360.2,130.8,369.5,136.4z M383.2,102.2c7.7,0,13.8,6.8,12.6,14.6c-0.9,5.8-5.8,10.4-11.6,10.8
	c-7.6,0.6-13.8-5.4-13.7-12.9C370.5,107.7,376.2,102.2,383.2,102.2z M82.5,38.1c0-7.1,5.8-12.9,12.9-12.8
	c6.9,0.1,12.6,5.9,12.6,12.8c0,7.1-5.8,12.7-13,12.7C88,50.7,82.5,45.1,82.5,38.1z M216.6,198.2c7.1-0.1,12.9,5.7,12.9,12.8
	c0,6.9-5.7,12.6-12.6,12.7c-7.1,0.1-12.9-5.7-12.9-12.8C204,203.9,209.7,198.2,216.6,198.2z M50.4,338.8c-7.1,0-12.9-5.8-12.8-12.9
	c0.1-6.9,5.9-12.6,12.8-12.6c7.1,0,12.7,5.8,12.7,13C63,333.3,57.4,338.8,50.4,338.8z M217.9,367.5c-3.9,5.2-9.6,9.1-15.8,10.7
	c-0.8,0.6-1.9,1.1-3.1,1.5c-14.6,5.1-29,5-43.3-1c-1.1-0.4-1.8-0.9-2.3-1.7c-5.4-1.9-10-5.5-13.3-10.1c0,0.3,0,0.6,0,0.9
	c-11-4.6-21.3-30.8-18.9-47.9c3.8-27.4,23.9-47.9,49.8-51c26.9-3.2,51.3,11.4,61.2,36.5C240.8,327.7,234,353.2,217.9,367.5z
	 M312.8,358.2c6.2,0,11.6,4.6,12.6,10.7c1.3,7.8-5,14.8-12.6,14.8c-7,0-12.8-6-12.7-13C300.1,363.7,305.8,358.2,312.8,358.2z
	 M327.7,191.8c25.3-1.6,48.6,12.9,57.7,35.9c8.7,22,3,48.3-13.5,62.7c-4.4,6.6-11.8,11.4-19.7,12.6c-0.3,0.1-0.6,0.2-1,0.3
	c-14.1,4.7-28.1,4.4-41.9-1.3c-1-0.4-1.7-0.9-2.2-1.4c-5.6-1.7-10.4-5.1-13.9-9.7c0,0.1,0,0.1,0,0.2c-12.9-9.7-23.2-33.2-17.1-56.4
	C282.5,211.1,303.6,193.4,327.7,191.8z"></path>
</svg>