<svg xml:space="preserve" style="enable-background:new 0 0 429.1 422.7;" viewBox="0 0 429.1 422.7" y="0px" x="0px" xmlns:xlink="http://www.w3.org/1999/xlink" xmlns="http://www.w3.org/2000/svg" id="Layer_1" version="1.1">
<path d="M284.98,138.11c-36.69-35.83-77.21-66.13-126.6-84.61c0.7,3.59,1.27,6.57,1.87,9.54c0.59,2.9,1.2,5.78,1.86,8.9
	c-4.12,0.88-7.85,1.68-11.95,2.55c-2.11-10.02-4.28-19.74-6.12-29.51c-0.6-3.17,1.07-5.79,4.31-6.54
	c10.55-2.45,21.15-4.68,32.24-7.11c0.86,4.16,1.65,7.96,2.49,11.97c-3.44,0.79-6.43,1.48-9.21,2.12
	c15.94,8.41,31.96,16.86,47.96,25.3c-0.74-1.44-1.61-3.15-2.76-5.37c5.43-2.93,10.85-5.86,16.52-8.92
	c1.85,3.71,3.62,7.24,5.47,10.95c-4.61,2.48-8.99,4.83-13.97,7.51c24.25,16.19,46.25,34.44,66.55,54.68
	C290.75,132.43,288.02,135.12,284.98,138.11z"></path>
<path d="M349.45,140.21c9.68-2.77,18.75-5.48,27.89-7.93c4.12-1.11,6.97,0.25,8.11,3.97c3.13,10.23,5.98,20.55,9.09,31.35
	c-4.04,1.14-7.79,2.2-11.75,3.32c-1.08-3.6-2.05-6.8-3.31-11.01c-18.48,48.86-47.93,89.48-83.32,126.31
	c-2.69-3.04-5.29-5.98-8.13-9.18c35.5-37.27,65.88-79.01,82.96-130.18c-6.45,1.79-12.14,3.38-18.19,5.06
	C351.67,147.98,350.62,144.32,349.45,140.21z"></path>
<path d="M258.44,391.37c-1.18-4.07-2.2-7.63-3.36-11.62c3.51-1.12,6.85-2.19,10.93-3.49c-48.8-18.41-89.41-47.93-126.52-83.56
	c3.05-2.61,5.97-5.1,9.33-7.97c18.19,17.32,38.05,34.14,59.92,48.41c21.8,14.23,44.58,26.5,70.34,34.46
	c-1.71-6.12-3.28-11.78-5.01-17.98c3.8-1.09,7.55-2.16,11.79-3.37c2.78,9.99,5.62,19.63,8.1,29.37c0.81,3.19-1.08,5.71-4.16,6.64
	C279.55,385.37,269.24,388.26,258.44,391.37z"></path>
<path d="M56.77,267.68c6.46-1.34,12.17-2.53,18.27-3.79c0.89,3.95,1.72,7.66,2.66,11.82c-4.01,0.9-7.83,1.79-11.67,2.62
	c-5.61,1.22-11.22,2.43-16.84,3.57c-3.59,0.73-6.24-0.69-7.53-3.93c-0.32-0.81-0.53-1.67-0.71-2.52c-2.1-9.86-4.19-19.72-6.37-30
	c4.04-0.87,7.76-1.68,11.87-2.56c0.78,3.35,1.48,6.41,2.42,10.46c19.94-46.69,49.11-85.85,83.97-121.14c2.92,2.97,5.62,5.7,8.57,8.7
	c-17.79,18.22-34.5,37.54-48.95,58.73C78.05,220.74,65.64,242.87,56.77,267.68z"></path>
<path d="M300.5,384.97c0.61-3.73,1.22-7.49,1.68-10.36c7.57,0,14.66,0.1,21.73-0.02c13.02-0.23,25.27-3.25,35.83-11.2
	c11.51-8.67,17.25-20.76,19.32-34.72c2.88-19.36-0.64-38.04-6.51-56.38c-2.42-7.57-5.38-14.97-8.19-22.71
	c3.5-1.54,7.01-3.09,11.21-4.95c3.22,8.89,6.69,17.54,9.48,26.41c4.43,14.1,7.23,28.57,7.28,43.41
	c0.07,19.12-4.05,36.93-17.37,51.56c-8.12,8.92-18.21,14.54-29.78,17.79C332.61,387.34,311.18,388.08,300.5,384.97z"></path>
<path d="M252.78,61.68c-1.56-3.53-3.11-7.03-4.85-10.94c3.64-1.5,7.13-3.02,10.68-4.38c19.24-7.35,38.93-12.61,59.71-12.64
	c19.05-0.02,36.65,4.3,51.13,17.55c8.9,8.15,14.45,18.32,17.63,29.89c4.02,14.6,3.69,29.29,1.37,44.38
	c-3.97-0.62-7.64-1.18-11.83-1.83c0.22-2.33,0.46-4.62,0.66-6.92c1.21-13.82,0.87-27.45-4.88-40.43
	c-7.27-16.45-20.33-25.49-37.54-28.86c-20.73-4.07-40.73,0.01-60.42,6.28C267.23,56.07,260.19,58.95,252.78,61.68z"></path>
<path d="M36.56,295.74c4.14,0.73,7.81,1.38,11.91,2.11c-0.41,3.58-0.87,7-1.17,10.43c-1.06,12.44-0.54,24.77,4.22,36.49
	c7.53,18.52,22.04,28.15,41.27,31.06c6.98,1.05,14.12,0.98,21.52,1.44c0.32,3.55,0.65,7.34,1.02,11.4
	c-10.64,1.3-20.79,0.43-30.75-1.95c-33-7.88-49.17-33.84-49.8-65.3c-0.1-4.74,0-9.5,0.31-14.23
	C35.32,303.47,36.02,299.79,36.56,295.74z"></path>
<path d="M130.23,33.45c-0.69,3.95-1.35,7.7-2.07,11.84c-3.66-0.4-7.08-0.86-10.52-1.14c-14.64-1.19-29-0.3-42.2,6.97
	c-15.75,8.66-23.22,22.82-25.48,40.04c-0.85,6.51-0.8,13.13-1.18,20c-3.67,0.32-7.46,0.65-11.23,0.97
	c-4.27-37.92,13.73-73.86,56.63-79.7C106.13,30.8,118.03,31.4,130.23,33.45z"></path>
<path d="M194.51,349.87c1.98,3.63,3.8,6.99,5.85,10.75c-6.99,3.52-13.71,6.9-20.86,10.49c-1.77-3.84-3.39-7.38-5.11-11.12
	C181.09,356.61,187.61,353.33,194.51,349.87z"></path>
<path d="M84.65,228.21c3.52-2.42,6.68-4.59,10.09-6.93c4.42,6.07,8.74,11.99,13.32,18.27c-3.23,2.51-6.33,4.92-9.69,7.54
	C93.78,240.76,89.38,234.71,84.65,228.21z"></path>
<path d="M149.88,132.69c-2.8-2.94-5.45-5.72-8.42-8.84c5.74-5.22,11.32-10.28,17.23-15.65c2.72,3.16,5.28,6.13,8.01,9.3
	C161.03,122.62,155.58,127.54,149.88,132.69z"></path>
<path d="M65.41,197.22c-3.55-7.06-6.93-13.79-10.5-20.91c3.84-1.76,7.4-3.4,11.12-5.11c3.36,6.7,6.65,13.24,10.11,20.12
	C72.7,193.21,69.27,195.1,65.41,197.22z"></path>
<path d="M322.77,181.17c3.22-2.47,6.26-4.8,9.71-7.45c4.57,6.33,9.05,12.51,13.66,18.89c-3.38,2.3-6.55,4.45-10.12,6.87
	C331.58,193.35,327.25,187.37,322.77,181.17z"></path>
<path d="M242.72,317.96c2.55,3.26,4.96,6.35,7.53,9.65c-6.29,4.59-12.31,8.98-18.82,13.73c-2.31-3.32-4.54-6.51-7-10.05
	C230.52,326.85,236.49,322.5,242.72,317.96z"></path>
<path d="M268.27,312.79c-2.84-3.27-5.27-6.08-8.01-9.23c5.54-5.09,10.99-10.09,16.39-15.05c2.91,2.76,5.77,5.46,8.92,8.44
	C279.74,302.28,274.17,307.38,268.27,312.79z"></path>
<path d="M184.33,103.25c-2.56-3.35-4.89-6.4-7.44-9.74c6.36-4.6,12.49-9.04,18.87-13.65c2.33,3.42,4.5,6.59,6.9,10.12
	C196.6,94.37,190.66,98.67,184.33,103.25z"></path>
<path d="M308.52,163.5c-5.14-5.67-10.05-11.07-15.22-16.76c2.98-2.84,5.83-5.56,8.89-8.47c5.22,5.78,10.27,11.38,15.62,17.29
	C314.68,158.24,311.71,160.77,308.52,163.5z"></path>
<path d="M122.46,257.05c5.2,5.68,10.14,11.09,15.06,16.47c-2.77,2.91-5.5,5.78-8.46,8.89c-5.33-5.84-10.43-11.43-15.78-17.27
	C116.34,262.43,119.21,259.91,122.46,257.05z"></path>
<path d="M57.73,150.34c-3.88,1.33-7.48,2.57-11.54,3.96c-1.9-6.57-3.71-12.84-5.59-19.39c4.2-0.99,7.92-1.86,11.91-2.8
	C54.25,138.21,55.95,144.12,57.73,150.34z"></path>
<path d="M153.49,368.26c1.32,3.81,2.53,7.31,3.99,11.52c-6.47,1.88-12.79,3.72-19.39,5.64c-1-4.29-1.87-8-2.78-11.91
	C141.38,371.76,147.18,370.08,153.49,368.26z"></path>
<path d="M369.55,232.43c-3.3,1.67-6.17,3.13-9.06,4.56c-0.54,0.27-1.14,0.44-1.94,0.73c-0.75-1.36-1.46-2.65-2.15-3.94
	c-1.98-3.7-3.95-7.4-6.06-11.36c3.57-2.04,6.88-3.93,10.61-6.06C363.82,221.72,366.6,226.93,369.55,232.43z"></path>
<path d="M282.32,257.02c-1.84,3.35-4.64,4.44-8.47,4.43c-35.28-0.11-70.57-0.06-105.85-0.07c-6.37,0-8.41-2-8.36-8.38
	c0.09-9.33-0.44-18.74,0.55-27.98c1.74-16.07,10.67-27.49,25.07-34.69c0.46-0.23,0.91-0.48,1.63-0.86
	c-6.59-10.84-8.47-22.37-4.71-34.53c2.73-8.82,8.05-15.86,15.59-21.14c14.96-10.47,35.42-9.47,49.17,2.06
	c13.45,11.28,20.73,32.67,8.19,53.68c6.5,2.95,12.19,7,16.78,12.5c5.17,6.19,8.44,13.25,9.8,21.19c0.12,0.69,0.39,1.35,0.6,2.03
	C282.32,235.84,282.32,246.43,282.32,257.02z M269.78,248.82c0-7.26,0.36-14.21-0.08-21.12c-0.81-12.55-9.71-23.6-21.64-27.34
	c-1.25-0.39-3.11-0.2-4.22,0.48c-15.27,9.42-30.44,9.42-45.71,0c-1.11-0.68-2.98-0.9-4.22-0.48c-10.33,3.49-17.26,10.56-20.42,20.95
	c-2.74,8.98-0.98,18.26-1.42,27.52C204.82,248.82,237.14,248.82,269.78,248.82z M221.33,138.97c-15.32-0.32-28.19,12.15-28.57,27.68
	c-0.38,15.28,12.25,28.43,27.57,28.69c15.66,0.27,28.55-12.09,28.89-27.69C249.56,152.18,237.03,139.29,221.33,138.97z"></path>
</svg>