<svg xml:space="preserve" style="enable-background:new 0 0 339.5 377.9;" viewBox="0 0 339.5 377.9" y="0px" x="0px" xmlns:xlink="http://www.w3.org/1999/xlink" xmlns="http://www.w3.org/2000/svg" id="Layer_1" version="1.1">
<path d="M172.9,12.1c44.3,26.1,91.1,46.4,140.5,60.4c7.8,2.2,8.8,3.6,8.8,11.7c0,26.7,0.4,53.4-0.3,80.1
	c-1.4,55.9-20.9,104.6-59.1,145.6c-19.1,20.5-41,37.3-66.3,49.4c-6.1,2.9-12.6,5.2-19.1,7.1c-7.8,2.4-15.3-0.1-22.6-2.9
	c-20.9-8.1-39.4-20.3-56.4-34.7c-26.6-22.5-47.3-49.6-61.1-81.8c-9.6-22.4-16.1-45.7-17-70c-1.1-31.9-0.8-63.8-1-95.7
	c0-4.7,1.8-6.8,6.8-8.3c22.2-6.3,44.1-13.7,65.5-22.4c24.6-10.1,48.4-21.9,71.4-35.3c1.9-1.1,3.8-2.2,5.6-3.3
	C170.2,12.1,171.5,12.1,172.9,12.1z M308,131.5c-0.2,0-0.3,0-0.5,0c0-13.9-0.1-27.8,0.1-41.6c0-2.6-0.6-3.8-3.2-4.6
	C258.5,72,215,53.4,173.6,29.7c-1.9-1.1-3.4-1.3-5.4-0.1c-41.4,23.9-85,42.5-130.9,55.8c-2.5,0.7-3.1,1.8-3.1,4.3
	c0.1,22.1,0,44.2,0.1,66.3c0.1,25.6,3.9,50.6,12.8,74.8c10.7,29,27.2,54.3,49.2,75.8c18.3,17.9,38.9,32.6,62.7,42.7
	c7.4,3.1,14.6,4.2,22.1,0.7c3.2-1.5,6.6-2.7,9.8-4.3c39.1-19.7,69.6-48.5,91-86.7c14-24.9,22.2-51.7,24.4-80.2
	C307.3,163,307.4,147.2,308,131.5z"></path>
<path d="M48.9,117c0-4.2,0-8.3,0-12.5c0.1-5.3,1.6-7.5,6.6-9.2c12.7-4.5,25.5-8.9,38.1-13.6c7.7-2.9,12.2,3,11.3,7.8
	c-0.7,3.7-3.3,5.3-6.5,6.5c-10.4,3.7-20.8,7.6-31.3,11.1c-2.5,0.8-3.4,2-3.3,4.6c0.2,6.3,0.1,12.7,0,19.1c0,3.3-1.2,6.1-4.4,7.6
	c-2.8,1.3-5.8,1.1-7.7-1.2c-1.5-1.9-2.6-4.6-2.8-7.1C48.5,125.8,48.9,121.4,48.9,117z"></path>
<path d="M255.9,252.1c6.1,0,9.3,6.3,5.8,11.7c-3.5,5.3-7.3,10.4-11.2,15.4c-9.8,12.4-21.3,23.1-33.6,32.9c-4.2,3.3-8.5,3.3-11.4-0.2
	c-2.8-3.5-2.3-7.9,1.8-11.2c11.2-9.1,21.9-18.8,30.9-30.2c3.7-4.6,7.1-9.4,10.5-14.2C250.6,253.9,252.6,251.9,255.9,252.1z"></path>
<path d="M185.9,312.7c4.2-0.1,8,3.5,8.1,7.7c0.1,4.3-3.8,8.5-8.2,8.7c-4.4,0.2-8.1-3.4-8.2-7.9C177.6,316.6,181.3,312.8,185.9,312.7
	z"></path>
<path d="M134.5,78.3c0.1,4.2-3.6,8-8.1,8.2c-4.2,0.2-8.1-3.7-8.1-8.1c0-4.1,3.7-7.8,7.9-8C130.4,70.2,134.4,74,134.5,78.3z"></path>
<g>
	<path d="M139.1,165.6c0-4.1-0.3-8.4,0-12.7c1.1-14.8,12.4-27.2,26.6-29.4c15.3-2.3,29.9,5.4,35.3,19.5c1.9,5.1,2,10.9,2.7,16.5
		c0.3,2.1,0,4.2,0,6.4c2.2,0.3,3.9,0.4,5.6,0.8c6.2,1.3,11.4,6.7,11.5,13.5c0.3,18.1,0.3,36.3,0,54.4c-0.1,7.6-6,13-13.7,13.6
		c-5.6,0.4-11.2,0.2-16.8,0.2c-16.9,0-33.7,0-50.6,0c-12.5,0-18.1-5.7-18.1-18.3c0-14.3,0-28.5,0-42.8
		C121.6,172.2,123.9,169.2,139.1,165.6z M171.2,235.5c10.7,0,21.3-0.1,32,0c3.4,0,4.9-1,4.9-4.7c-0.1-15.7-0.1-31.4,0-47.1
		c0-3.4-1.1-4.5-4.5-4.5c-21.5,0.1-42.9,0.1-64.4,0c-3.7,0-4.7,1.4-4.7,4.8c0.1,15.6,0.1,31.1,0,46.7c0,3.5,1.2,4.9,4.7,4.8
		C149.9,235.4,160.6,235.5,171.2,235.5z M190.6,166.1c0-4.4,0.3-8.6-0.1-12.7c-0.8-9.4-8.2-16.5-17.5-17.2
		c-9.4-0.8-18.2,4.9-20.2,13.9c-1.1,5.1-0.8,10.5-1.2,16C165,166.1,177.6,166.1,190.6,166.1z"></path>
	<path d="M171.5,181.4c8.6,0.1,16.2,5.9,18.6,14.1c2.4,8.4-1.1,17.6-8.9,21.9c-2.7,1.5-3.7,3.2-3.4,6.1c0,0.3,0,0.6,0,0.9
		c-0.1,5.9-2.3,8.9-6.4,8.9c-4.2,0-6.7-3-6.5-8.8c0.1-3.5-0.9-5.6-4.1-7.5c-7.5-4.4-10.6-13.6-8.1-21.8
		C155.2,187,162.9,181.4,171.5,181.4z M171.4,194.4c-3.4,0-6.3,2.7-6.4,6.2c-0.1,3.7,2.7,6.7,6.3,6.7c3.4,0,6.3-2.7,6.4-6.2
		C177.8,197.5,175,194.5,171.4,194.4z"></path>
</g>
</svg>